<svg xmlns="http://www.w3.org/2000/svg" viewBox="0 0 400 220" role="img" aria-label="Asansoft — B2B SaaS mockup">
  <defs>
    <linearGradient id="as-bg" x1="0" y1="0" x2="1" y2="1">
      <stop offset="0%" stop-color="#0f0f12"/>
      <stop offset="100%" stop-color="#0a0a0a"/>
    </linearGradient>
    <linearGradient id="as-accent" x1="0" y1="0" x2="1" y2="1">
      <stop offset="0%" stop-color="#6366f1" stop-opacity="0.5"/>
      <stop offset="100%" stop-color="#6366f1" stop-opacity="0.05"/>
    </linearGradient>
  </defs>
  <rect width="400" height="220" fill="url(#as-bg)"/>
  <circle cx="320" cy="40" r="120" fill="url(#as-accent)"/>
  <g transform="translate(40 38)">
    <rect width="220" height="144" rx="6" fill="#161616" stroke="#1f1f1f"/>
    <rect x="12" y="12" width="60" height="6" rx="3" fill="#2a2a2a"/>
    <rect x="12" y="26" width="40" height="4" rx="2" fill="#2a2a2a"/>
    <rect x="12" y="48" width="196" height="1" fill="#1f1f1f"/>
    <rect x="12" y="58" width="120" height="6" rx="3" fill="#3a3a3a"/>
    <rect x="160" y="58" width="48" height="6" rx="3" fill="#6366f1"/>
    <rect x="12" y="76" width="196" height="1" fill="#1f1f1f"/>
    <rect x="12" y="86" width="100" height="6" rx="3" fill="#3a3a3a"/>
    <rect x="140" y="86" width="68" height="6" rx="3" fill="#3a3a3a"/>
    <rect x="12" y="104" width="196" height="1" fill="#1f1f1f"/>
    <rect x="12" y="114" width="80" height="6" rx="3" fill="#3a3a3a"/>
    <rect x="140" y="114" width="68" height="6" rx="3" fill="#3a3a3a"/>
    <rect x="12" y="132" width="196" height="1" fill="#1f1f1f"/>
  </g>
  <g transform="translate(280 26)">
    <rect width="80" height="170" rx="14" fill="#161616" stroke="#1f1f1f"/>
    <rect x="6" y="10" width="68" height="6" rx="3" fill="#2a2a2a"/>
    <rect x="6" y="22" width="40" height="4" rx="2" fill="#2a2a2a"/>
    <rect x="6" y="40" width="68" height="22" rx="4" fill="#1f1f1f"/>
    <rect x="10" y="46" width="48" height="4" rx="2" fill="#3a3a3a"/>
    <rect x="10" y="54" width="32" height="3" rx="1.5" fill="#2a2a2a"/>
    <rect x="6" y="68" width="68" height="22" rx="4" fill="#1f1f1f"/>
    <rect x="10" y="74" width="56" height="4" rx="2" fill="#3a3a3a"/>
    <rect x="10" y="82" width="40" height="3" rx="1.5" fill="#2a2a2a"/>
    <rect x="6" y="96" width="68" height="22" rx="4" fill="#1f1f1f"/>
    <rect x="10" y="102" width="36" height="4" rx="2" fill="#3a3a3a"/>
    <rect x="10" y="110" width="28" height="3" rx="1.5" fill="#2a2a2a"/>
    <rect x="6" y="138" width="68" height="22" rx="6" fill="#6366f1"/>
    <rect x="22" y="146" width="36" height="6" rx="3" fill="#fafafa" fill-opacity="0.9"/>
  </g>
</svg>
