<svg xmlns="http://www.w3.org/2000/svg" viewBox="0 0 400 220" role="img" aria-label="n8n — automation workflow mockup">
  <defs>
    <pattern id="n8-grid" width="20" height="20" patternUnits="userSpaceOnUse">
      <path d="M 20 0 L 0 0 0 20" fill="none" stroke="#161616" stroke-width="1"/>
    </pattern>
    <linearGradient id="n8-bg" x1="0" y1="0" x2="0" y2="1">
      <stop offset="0%" stop-color="#0a0a0a"/>
      <stop offset="100%" stop-color="#0f0f12"/>
    </linearGradient>
  </defs>
  <rect width="400" height="220" fill="url(#n8-bg)"/>
  <rect width="400" height="220" fill="url(#n8-grid)"/>
  <g transform="translate(28 92)">
    <rect width="78" height="36" rx="6" fill="#161616" stroke="#3a3a3a"/>
    <circle cx="14" cy="18" r="4" fill="#6366f1"/>
    <rect x="26" y="13" width="40" height="4" rx="2" fill="#3a3a3a"/>
    <rect x="26" y="22" width="28" height="3" rx="1.5" fill="#2a2a2a"/>
  </g>
  <path d="M106 110 L160 110" stroke="#3a3a3a" stroke-width="1.5" fill="none" stroke-dasharray="2 3"/>
  <g transform="translate(160 60)">
    <rect width="78" height="36" rx="6" fill="#161616" stroke="#3a3a3a"/>
    <circle cx="14" cy="18" r="4" fill="#22c55e" fill-opacity="0.6"/>
    <rect x="26" y="13" width="40" height="4" rx="2" fill="#3a3a3a"/>
    <rect x="26" y="22" width="32" height="3" rx="1.5" fill="#2a2a2a"/>
  </g>
  <g transform="translate(160 124)">
    <rect width="78" height="36" rx="6" fill="#161616" stroke="#3a3a3a"/>
    <circle cx="14" cy="18" r="4" fill="#22c55e" fill-opacity="0.6"/>
    <rect x="26" y="13" width="36" height="4" rx="2" fill="#3a3a3a"/>
    <rect x="26" y="22" width="24" height="3" rx="1.5" fill="#2a2a2a"/>
  </g>
  <path d="M106 110 Q140 110 160 78" stroke="#3a3a3a" stroke-width="1.5" fill="none"/>
  <path d="M106 110 Q140 110 160 142" stroke="#3a3a3a" stroke-width="1.5" fill="none"/>
  <g transform="translate(294 92)">
    <rect width="78" height="36" rx="6" fill="#161616" stroke="#6366f1"/>
    <circle cx="14" cy="18" r="4" fill="#6366f1"/>
    <rect x="26" y="13" width="40" height="4" rx="2" fill="#6366f1" fill-opacity="0.7"/>
    <rect x="26" y="22" width="28" height="3" rx="1.5" fill="#3a3a3a"/>
  </g>
  <path d="M238 78 Q270 78 294 110" stroke="#3a3a3a" stroke-width="1.5" fill="none"/>
  <path d="M238 142 Q270 142 294 110" stroke="#3a3a3a" stroke-width="1.5" fill="none"/>
</svg>
